{"title":"My.All.American.2015.BRRip.480p.x264.AAC-VYTO [P2PDL]","uid":13674986,"size":430262307,"categoryP":"video","categoryS":"movies","magnet":"?xt=urn:btih:c63114170c19424b4cc7639913c44b709a23ec63&amp;dn=My.All.American.2015.BRRip.480p.x264.AAC-VYTO+%5BP2PDL%5D&amp;tr=udp%3A%2F%2Ftracker.leechers-paradise.org%3A6969&amp;tr=udp%3A%2F%2Fzer0day.ch%3A1337&amp;tr=udp%3A%2F%2Fopen.demonii.com%3A1337&amp;tr=udp%3A%2F%2Ftracker.coppersurfer.tk%3A6969&amp;tr=udp%3A%2F%2Fexodus.desync.com%3A6969","seeders":1,"leechers":0,"uploader":"VYTOP2PDL","files":7,"time":1456387267,"description":"My.All.American.2015.BRRip.480p.x264.AAC-VYTO\r\n\r\n\r\nGenre: Biography, Drama, Sport  \nhttp://www.imdb.com/title/tt3719896/\r\n\r\n\r\nFormat                                   : MPEG-4\r\nFile size                                : 402 MiB\r\nDuration                                 : 1h 58mn\r\nOverall bit rate                         : 474 Kbps\r\n\r\nVideo\r\nFormat                                   : AVC\r\nBit rate                                 : 439 Kbps\r\nWidth                                    : 720 pixels\r\nHeight                                   : 304 pixels\r\nDisplay aspect ratio                     : 2.35:1\r\nFrame rate mode                          : Constant\r\nFrame rate                               : 23.976 fps\r\nBit depth                                : 8 bits\r\nStream size                              : 372 MiB (93%)\r\nWriting library                          : x264\r\n\r\nAudio\r\nFormat                                   : AAC\r\nBit rate mode                            : Variable\r\nBit rate                                 : 32.0 Kbps\r\nChannel(s)                               : 2 channels\r\nChannel positions                        : Front: L R\r\nSampling rate                            : 48.0 KHz\r\nStream size                              : 27.1 MiB (7%)\r\nLanguage                                 : English\r\n\r\nSubtitle                                 : English\r\n\r\nScreen Shot: (Click to view)\r\n \nhttp://ititli.com/XgC \nhttp://ititli.com/XgF \nhttp://ititli.com/XgJ \nhttp://ititli.com/Xg5 \nhttp://ititli.com/XgB \nhttp://ititli.com/XgN \nhttp://ititli.com/XgP \nhttp://ititli.com/Xgf \nhttp://ititli.com/Xgu \nhttp://ititli.com/Xgv \nhttp://ititli.com/XgR \nhttp://ititli.com/Xgy\r\n\r\n----------------------------------------------------------------------------------------------------\r\n\r\n\r\nEncoder Notes: Looking For Early Access To Anything You Can Provide WEBDL, DVDScr, DVDR, BluRay,\r\nDirect Audio, Music Releases and Seedboxes. If You Got anything to offer please contact us.\r\n\r\nSupport us by donating BC - 1FgwdzPsd1y25Gea8wP1qni35uGCtmkRCD\r\n\r\nSend some love!\r\nFind us and join us!","torrent":{"xt":"urn:btih:c63114170c19424b4cc7639913c44b709a23ec63","amp;dn":"My.All.American.2015.BRRip.480p.x264.AAC-VYTO+%5BP2PDL%5D","amp;tr":["udp%3A%2F%2Ftracker.leechers-paradise.org%3A6969","udp%3A%2F%2Fzer0day.ch%3A1337","udp%3A%2F%2Fopen.demonii.com%3A1337","udp%3A%2F%2Ftracker.coppersurfer.tk%3A6969","udp%3A%2F%2Fexodus.desync.com%3A6969"],"infoHash":"c63114170c19424b4cc7639913c44b709a23ec63","infoHashBuffer":{"type":"Buffer","data":[198,49,20,23,12,25,66,75,76,199,99,153,19,196,75,112,154,35,236,99]},"announce":[],"urlList":[]}}